<svg id="Capa_1" enable-background="new 0 0 512 512" height="512" viewBox="0 0 512 512" width="512" xmlns="http://www.w3.org/2000/svg"><g><g><circle cx="97.5" cy="414.5" fill="#f5f8f9" r="90"/><path d="m148.9 483.4v4.98c-14.57 10.17-32.29 16.12-51.4 16.12s-36.83-5.95-51.4-16.12v-4.98c0-28.38 23.01-51.39 51.4-51.39 14.2 0 27.04 5.75 36.35 15.05 9.3 9.3 15.05 22.15 15.05 36.34z" fill="#ade194"/><path d="m100.56 491.298c6.775 4.153 14.137 7.435 21.94 9.682-7.94 2.29-16.32 3.52-25 3.52-19.11 0-36.83-5.95-51.4-16.12v-4.98c0-28.38 23.01-51.39 51.4-51.39 9.08 0 17.6 2.35 25 6.48-15.75 8.78-26.4 25.6-26.4 44.91 0 3.232 1.704 6.209 4.46 7.898z" fill="#97da7b"/><circle cx="255.5" cy="255.5" fill="#5f99d7" r="100"/><circle cx="97.5" cy="97.5" fill="#f5f8f9" r="90"/><circle cx="97.5" cy="80.994" fill="#fff3de" r="34.013"/><path d="m117.5 108.5c-5.62 4.1-12.53 6.51-20 6.51-18.78 0-34.01-15.23-34.01-34.02 0-18.78 15.23-34.01 34.01-34.01 7.47 0 14.38 2.41 20 6.51-8.49 6.17-14.01 16.19-14.01 27.5s5.52 21.33 14.01 27.51z" fill="#ffe5c2"/><path d="m148.9 166.4v4.98c-14.57 10.17-32.29 16.12-51.4 16.12s-36.83-5.95-51.4-16.12v-4.98c0-28.38 23.01-51.39 51.4-51.39 14.2 0 27.04 5.75 36.35 15.05 9.3 9.3 15.05 22.15 15.05 36.34z" fill="#8ac9fe"/><path d="m100.56 174.298c6.775 4.153 14.137 7.435 21.94 9.682-7.94 2.29-16.32 3.52-25 3.52-19.11 0-36.83-5.95-51.4-16.12v-4.98c0-28.38 23.01-51.39 51.4-51.39 9.08 0 17.6 2.35 25 6.48-15.75 8.78-26.4 25.6-26.4 44.91 0 3.232 1.704 6.209 4.46 7.898z" fill="#60b7ff"/><circle cx="414.5" cy="414.5" fill="#f5f8f9" r="90"/><circle cx="414.5" cy="397.993" fill="#ffeee6" r="34.013"/><path d="m434.5 425.5c-5.62 4.1-12.53 6.51-20 6.51-18.78 0-34.01-15.23-34.01-34.02 0-18.78 15.23-34.01 34.01-34.01 7.47 0 14.38 2.41 20 6.51-8.49 6.17-14.01 16.19-14.01 27.5s5.52 21.33 14.01 27.51z" fill="#ffdfcf"/><path d="m465.9 483.4v4.98c-14.57 10.17-32.29 16.12-51.4 16.12s-36.83-5.95-51.4-16.12v-4.98c0-28.38 23.01-51.39 51.4-51.39 14.2 0 27.04 5.75 36.35 15.05 9.3 9.3 15.05 22.15 15.05 36.34z" fill="#fee97d"/><path d="m417.56 491.298c6.775 4.153 14.137 7.435 21.94 9.682-7.94 2.29-16.32 3.52-25 3.52-19.11 0-36.83-5.95-51.4-16.12v-4.98c0-28.38 23.01-51.39 51.4-51.39 9.08 0 17.6 2.35 25 6.48-15.75 8.78-26.4 25.6-26.4 44.91 0 3.232 1.704 6.209 4.46 7.898z" fill="#fee45a"/><circle cx="97.5" cy="397.993" fill="#f1b0a2" r="34.013"/><path d="m117.5 425.5c-5.62 4.1-12.53 6.51-20 6.51-18.78 0-34.01-15.23-34.01-34.02 0-18.78 15.23-34.01 34.01-34.01 7.47 0 14.38 2.41 20 6.51-8.49 6.17-14.01 16.19-14.01 27.5s5.52 21.33 14.01 27.51z" fill="#eb9c8d"/><circle cx="414.5" cy="97.5" fill="#f5f8f9" r="90"/><circle cx="414.5" cy="80.994" fill="#f1b0a2" r="34.013"/><path d="m434.5 108.5c-5.62 4.1-12.53 6.51-20 6.51-18.78 0-34.01-15.23-34.01-34.02 0-18.78 15.23-34.01 34.01-34.01 7.47 0 14.38 2.41 20 6.51-8.49 6.17-14.01 16.19-14.01 27.5s5.52 21.33 14.01 27.51z" fill="#eb9c8d"/><path d="m465.9 166.4v4.98c-14.57 10.17-32.29 16.12-51.4 16.12s-36.83-5.95-51.4-16.12v-4.98c0-28.38 23.01-51.39 51.4-51.39 14.2 0 27.04 5.75 36.35 15.05 9.3 9.3 15.05 22.15 15.05 36.34z" fill="#f07281"/><path d="m417.56 174.298c6.775 4.153 14.137 7.435 21.94 9.682-7.94 2.29-16.32 3.52-25 3.52-19.11 0-36.83-5.95-51.4-16.12v-4.98c0-28.38 23.01-51.39 51.4-51.39 9.08 0 17.6 2.35 25 6.48-15.75 8.78-26.4 25.6-26.4 44.91 0 3.232 1.704 6.209 4.46 7.898z" fill="#eb5569"/></g><g><path d="m180.657 309.851c-2.435-3.35-7.124-4.093-10.477-1.658-3.351 2.435-4.093 7.125-1.658 10.477 20.173 27.758 52.687 44.33 86.978 44.33 59.275 0 107.5-48.224 107.5-107.5s-48.225-107.5-107.5-107.5c-59.276 0-107.5 48.224-107.5 107.5 0 9.53 1.245 18.961 3.701 28.03 1.082 3.998 5.198 6.364 9.199 5.279 3.999-1.083 6.362-5.201 5.279-9.199-1.464-5.407-2.415-10.97-2.867-16.61h33.492c1.146 31.774 9.525 59.364 22.243 77.467-15.125-6.501-28.487-16.989-38.39-30.616zm67.343-145.329v83.478h-36.173c.889-22.691 5.789-43.698 14.047-59.786 6.285-12.243 14.072-20.479 22.126-23.692zm15 0c8.053 3.213 15.841 11.449 22.126 23.693 8.258 16.087 13.158 37.094 14.047 59.786h-36.173zm36.173 98.478c-.889 22.691-5.789 43.698-14.047 59.786-6.285 12.243-14.073 20.479-22.126 23.693v-83.479zm-7.265 77.528c12.743-18.102 21.14-45.718 22.287-77.528h33.499c-2.809 34.848-25.016 64.302-55.786 77.528zm55.787-92.528h-33.499c-1.147-31.81-9.544-59.426-22.287-77.528 30.769 13.226 52.976 42.68 55.786 77.528zm-128.603-77.528c-12.743 18.102-21.14 45.718-22.287 77.528h-33.499c2.809-34.848 25.016-64.302 55.786-77.528zm28.908 92.528v83.478c-8.054-3.213-15.841-11.449-22.126-23.693-8.258-16.087-13.158-37.094-14.047-59.786h36.173z"/><path d="m451.338 324.233c6.693-19.088 10.543-39.012 11.444-59.341.184-4.138-3.021-7.642-7.16-7.825-4.138-.178-7.642 3.021-7.824 7.161-.842 18.989-4.459 37.595-10.745 55.41-7.242-1.721-14.792-2.638-22.553-2.638-53.762 0-97.5 43.738-97.5 97.5 0 7.76.916 15.308 2.637 22.549-20.555 7.261-42.096 10.951-64.137 10.951-21.723 0-42.952-3.582-63.215-10.632 1.77-7.338 2.715-14.994 2.715-22.868 0-53.762-43.738-97.5-97.5-97.5-8.089 0-15.949.997-23.47 2.862-7.313-20.624-11.03-42.24-11.03-64.362 0-21.801 3.608-43.104 10.709-63.435 7.709 1.931 15.682 2.935 23.791 2.935 20.061 0 39.319-6.041 55.693-17.47.003-.002.006-.005.009-.007 26.173-18.238 41.798-48.151 41.798-80.023 0-8.074-.991-16.046-2.935-23.791 20.331-7.101 41.635-10.709 63.435-10.709 22.122 0 43.738 3.717 64.362 11.031-1.865 7.52-2.862 15.38-2.862 23.469 0 53.762 43.738 97.5 97.5 97.5 7.873 0 15.529-.945 22.866-2.715 4.547 13.087 7.679 26.669 9.306 40.473.449 3.815 3.689 6.623 7.438 6.623.293 0 .59-.017.888-.052 4.113-.484 7.056-4.212 6.57-8.326-1.742-14.783-5.086-29.33-9.937-43.355 35.397-14.635 60.369-49.528 60.369-90.148 0-53.762-43.738-97.5-97.5-97.5-40.401 0-75.138 24.701-89.911 59.792-22.15-7.819-45.352-11.792-69.089-11.792-23.427 0-46.329 3.869-68.196 11.485-11.699-27.738-35.455-48.51-64.861-56.267-4.005-1.054-8.108 1.334-9.165 5.339s1.334 8.108 5.339 9.165c26.997 7.121 48.375 27.205 57.187 53.725 2.784 8.372 4.196 17.138 4.196 26.053 0 22.205-8.97 43.281-24.501 58.652-2.065-11.831-7.68-22.729-16.349-31.398-4.69-4.685-10.035-8.471-15.821-11.298 9.547-7.612 15.683-19.331 15.683-32.463 0-22.89-18.623-41.513-41.513-41.513s-41.512 18.624-41.512 41.514c0 13.143 6.147 24.87 15.708 32.482-16.633 8.14-28.874 23.891-32.186 42.685-15.535-15.371-24.509-36.452-24.509-58.661 0-42.287 31.656-77.553 73.636-82.033 4.119-.439 7.101-4.135 6.662-8.253-.439-4.119-4.131-7.101-8.253-6.662-49.624 5.296-87.045 46.974-87.045 96.948 0 31.872 15.625 61.785 41.798 80.023.003.002.006.005.009.007 5.583 3.897 11.508 7.151 17.679 9.77-7.616 21.868-11.486 44.771-11.486 68.2 0 23.737 3.973 46.939 11.792 69.089-35.091 14.773-59.792 49.511-59.792 89.911 0 53.762 43.738 97.5 97.5 97.5 40.619 0 75.511-24.971 90.145-60.365 21.763 7.536 44.55 11.365 67.855 11.365 23.609 0 46.69-3.93 68.732-11.666 14.56 35.553 49.534 60.666 90.268 60.666 53.762 0 97.5-43.738 97.5-97.5 0-40.733-25.111-75.705-60.662-90.267zm-80.792-156.968c.033-.284.053-.572.053-.864 0-24.201 19.693-43.89 43.9-43.89 11.724 0 22.75 4.565 31.047 12.853 8.288 8.289 12.854 19.311 12.854 31.037 0 .293.021.58.053.864-12.735 8.052-27.803 12.735-43.953 12.735s-31.218-4.683-43.954-12.735zm43.954-59.759c-14.619 0-26.513-11.894-26.513-26.513s11.894-26.513 26.513-26.513 26.513 11.894 26.513 26.513-11.894 26.513-26.513 26.513zm0-92.506c45.49 0 82.5 37.009 82.5 82.5 0 22.902-9.387 43.648-24.507 58.611-2.071-11.815-7.683-22.698-16.342-31.357-4.69-4.685-10.035-8.471-15.821-11.298 9.547-7.612 15.683-19.331 15.683-32.463 0-22.89-18.622-41.513-41.513-41.513s-41.513 18.623-41.513 41.513c0 13.143 6.146 24.87 15.708 32.482-16.621 8.134-28.857 23.868-32.178 42.644-15.126-14.963-24.517-35.712-24.517-58.619 0-45.491 37.01-82.5 82.5-82.5zm-317 39.481c14.619 0 26.513 11.894 26.513 26.513s-11.894 26.513-26.513 26.513-26.513-11.894-26.513-26.513 11.894-26.513 26.513-26.513zm-43.9 111.919c0-24.201 19.693-43.89 43.9-43.89 11.723 0 22.75 4.566 31.047 12.853 8.288 8.289 12.853 19.312 12.853 31.037v.96c-13.123 8.282-28.219 12.64-43.9 12.64s-30.777-4.358-43.9-12.64zm-.054 317.865c.033-.284.054-.572.054-.865 0-24.201 19.693-43.89 43.9-43.89 11.723 0 22.75 4.566 31.047 12.854 8.289 8.289 12.853 19.311 12.853 31.037 0 .293.021.581.054.865-12.736 8.051-27.804 12.734-43.954 12.734s-31.218-4.683-43.954-12.735zm43.954-59.759c-14.619 0-26.513-11.894-26.513-26.512 0-14.619 11.894-26.513 26.513-26.513s26.513 11.894 26.513 26.513c0 14.618-11.894 26.512-26.513 26.512zm57.992 48.605c-2.07-11.815-7.683-22.699-16.342-31.357-4.69-4.685-10.035-8.471-15.821-11.298 9.547-7.612 15.683-19.331 15.683-32.462 0-22.89-18.623-41.513-41.513-41.513s-41.513 18.623-41.513 41.513c0 13.143 6.146 24.87 15.708 32.482-16.621 8.134-28.857 23.868-32.178 42.644-15.125-14.963-24.516-35.713-24.516-58.62 0-45.491 37.009-82.5 82.5-82.5s82.5 37.009 82.5 82.5c0 22.902-9.387 43.648-24.508 58.611zm215.054 11.154c.033-.284.054-.572.054-.865 0-24.201 19.693-43.89 43.9-43.89 11.724 0 22.75 4.566 31.047 12.854 8.289 8.288 12.854 19.31 12.854 31.036 0 .293.021.581.054.865-12.737 8.052-27.805 12.735-43.955 12.735s-31.218-4.683-43.954-12.735zm43.954-59.759c-14.619 0-26.513-11.894-26.513-26.512 0-14.619 11.894-26.513 26.513-26.513s26.513 11.894 26.513 26.513c0 14.618-11.894 26.512-26.513 26.512zm57.993 48.604c-2.071-11.816-7.683-22.698-16.342-31.357-4.69-4.685-10.035-8.471-15.821-11.298 9.547-7.612 15.683-19.331 15.683-32.462 0-22.89-18.622-41.513-41.513-41.513s-41.513 18.623-41.513 41.513c0 13.143 6.146 24.87 15.708 32.482-16.62 8.134-28.857 23.868-32.178 42.644-15.126-14.963-24.517-35.712-24.517-58.619 0-45.491 37.01-82.5 82.5-82.5s82.5 37.009 82.5 82.5c0 22.902-9.387 43.648-24.507 58.61z"/></g></g></svg>