<svg height="512" viewBox="0 0 59 59" width="512" xmlns="http://www.w3.org/2000/svg"><g id="Page-1" fill="none" fill-rule="evenodd"><g id="058---new-message" fill-rule="nonzero"><path id="Shape" d="m42.95 16.05-3.66-3.66-37.61 12.53c-.38674647.1280943-.65711876.4780042-.68348978.8845574-.02637102.4065533.19653213.7884594.56348978.9654426l20.31 9.9c.20205.0953324.3646676.25795.46.46l9.9 20.31c.1769832.3669577.5588893.5898608.9654426.5634898.4065532-.026371.7564631-.2967433.8845574-.6834898l12.53-37.61z" fill="#f0c419"/><path id="Shape" d="m42.95 16.05-7.53 7.53-2.83 2.83-10.45 10.45c-.0790275-.0776443-.1702338-.1418264-.27-.19l-20.31-9.9c-.36695765-.1769832-.5898608-.5588893-.56348978-.9654426.02637102-.4065532.29674331-.7564631.68348978-.8845574l37.61-12.53z" fill="#f3d55b"/><circle id="Oval" cx="49" cy="10" fill="#e64c3c" r="10"/><path id="Shape" d="m50 17c-.5522847 0-1-.4477153-1-1v-9.559c-.6147455.33780997-1.2991902.52911225-2 .559-.3572656.00178633-.6883456-.18716196-.8685254-.49566987-.1801798-.30850792-.1820858-.68970576-.005-1s.5062598-.5025438.8635254-.50433013c.9131219-.06916388 1.7196867-.62098385 2.115-1.447.2070599-.41545204.6727907-.63379446 1.1245837-.52722377.4517929.10657069.7708502.51003198.7704163.97422377v12c0 .5522847-.4477153 1-1 1z" fill="#fff"/><path id="Shape" d="m1.062 59c-.44884062.0006165-.84310607-.2978989-.96425667-.7300803-.1211506-.4321815.06049715-.8921389.44425667-1.1249197 1.39005616-.8517181 2.67173834-1.8688036 3.817-3.029 1.1984351-1.1794916 2.28600327-2.4665645 3.249-3.845-2.10430309-.611557-4.01589675-1.7541741-5.551-3.318-1.22474453-1.0447868-1.96811301-2.5456177-2.057-4.153.10651219-1.7095673 1.11176212-3.2343804 2.641-4.006 1.37834882-.7515989 2.98236456-.9782571 4.515-.638 1.52318174.3373218 2.8595554 1.2446963 3.735 2.536.8826232 1.4261286 1.2017445 3.1301294.895 4.779-.1814765 1.1014457-.5086801 2.1738531-.973 3.189.3582289-.0144293.7148839-.0555432 1.067-.123 4.029-.765 6.307-4.915 6.107-8.321-.0209-.3572656.1503865-.6985426.4493375-.8952754.2989511-.1967328.6801489-.2190328 1-.0585s.5297625.4795098.5506625.8367754c.25 4.249-2.633 9.435-7.73 10.4-.8238555.1538545-1.6640217.2015759-2.5.142-1.13543147 1.7732448-2.46864735 3.4117517-3.974 4.884-1.26027784 1.2753712-2.67057313 2.3931981-4.2 3.329-.15695095.0956176-.33721667.1461335-.521.146zm4.7-19c-.75222986-.002372-1.49308492.1836153-2.155.541-.89587535.4343035-1.50365811 1.3007815-1.607 2.291.11314127 1.0610523.64207181 2.0340544 1.471 2.706 1.30000062 1.3302593 2.92285713 2.3005276 4.71 2.816.167.046.334.087.5.124.54965606-1.0412732.93040116-2.1632561 1.128-3.324.2262649-1.1555074.01566968-2.3538691-.591-3.363-.59348775-.8572458-1.48831076-1.4592696-2.506-1.686-.31148059-.0699654-.62975826-.1051805-.949-.105z" fill="#ff5364"/></g></g></svg>