<svg id="Capa_1" enable-background="new 0 0 511.996 511.996" height="512" viewBox="0 0 511.996 511.996" width="512" xmlns="http://www.w3.org/2000/svg"><g><path d="m292.711 505.786c-78.226 8.28-156.452 8.28-234.678 0-28.06-2.97-49.918-25.674-51.715-53.833-7.541-118.139-7.541-236.278 0-354.417 1.797-28.159 23.656-50.864 51.715-53.833 78.226-8.28 156.452-8.28 234.678 0 28.06 2.97 49.918 25.674 51.715 53.833 7.541 118.139 7.541 236.278 0 354.417-1.798 28.159-23.656 50.863-51.715 53.833z" fill="#365e7d"/><path d="m315.394 421.525c-1.489 23.324-19.591 42.132-42.829 44.596-64.798 6.855-129.596 6.855-194.384 0-23.248-2.463-41.35-21.272-42.839-44.596-6.244-97.851-6.244-195.711 0-293.562 1.489-23.324 19.591-42.132 42.839-44.596 7.581-.802 15.152-1.509 22.732-2.12 2.626 10.263 11.4 18.064 22.264 19.219 34.791 3.676 69.591 3.676 104.381 0 10.865-1.155 19.639-8.955 22.264-19.219 7.581.611 15.161 1.318 22.742 2.12 23.238 2.463 41.34 21.271 42.829 44.596 6.255 97.851 6.255 195.712.001 293.562z" fill="#f9f6f9"/><path d="m49.835 504.32c-24.021-6.091-41.903-27.019-43.517-52.367-7.542-118.139-7.542-236.278 0-354.417 1.613-25.348 19.495-46.276 43.517-52.367-14.55 10.197-24.317 26.627-25.52 45.398-7.838 122.788-7.838 245.568 0 368.356 1.203 18.769 10.969 35.2 25.52 45.397z" fill="#2b4d66"/><path d="m210.613 77.574h-70.483c-4.208 0-7.618-3.411-7.618-7.618s3.411-7.618 7.618-7.618h70.482c4.208 0 7.618 3.411 7.618 7.618s-3.41 7.618-7.617 7.618z" fill="#2b4d66"/><g><g fill="#2b4d66"><path d="m281.631 176.767h-125.414c-4.208 0-7.618-3.411-7.618-7.618s3.411-7.618 7.618-7.618h125.414c4.208 0 7.618 3.411 7.618 7.618s-3.411 7.618-7.618 7.618z"/><path d="m252.725 212.142h-96.507c-4.208 0-7.618-3.411-7.618-7.618s3.411-7.618 7.618-7.618h96.507c4.208 0 7.619 3.411 7.619 7.618s-3.412 7.618-7.619 7.618z"/></g><path d="m93.36 230.646c-2.95 0-5.644-1.706-6.899-4.391l-17.878-38.222c-1.783-3.811-.138-8.346 3.673-10.129 3.812-1.784 8.346-.139 10.129 3.673l10.397 22.228 24.171-61.021c1.549-3.912 5.977-5.828 9.889-4.277 3.911 1.549 5.827 5.977 4.277 9.889l-30.674 77.437c-1.119 2.827-3.813 4.717-6.853 4.809-.078.003-.155.004-.232.004z" fill="#95d6a4"/></g><g><g fill="#365e7d"><path d="m281.631 280.173h-125.414c-4.208 0-7.618-3.411-7.618-7.618 0-4.208 3.411-7.618 7.618-7.618h125.414c4.208 0 7.618 3.411 7.618 7.618s-3.411 7.618-7.618 7.618z"/><path d="m252.725 315.547h-96.507c-4.208 0-7.618-3.411-7.618-7.618 0-4.208 3.411-7.618 7.618-7.618h96.507c4.208 0 7.619 3.411 7.619 7.618-.001 4.207-3.412 7.618-7.619 7.618z"/></g><g fill="#dd636e"><path d="m119.851 323.007c-1.95 0-3.9-.744-5.387-2.231l-44.283-44.283c-2.975-2.975-2.975-7.799 0-10.774s7.799-2.975 10.774 0l44.283 44.283c2.975 2.975 2.975 7.799 0 10.774-1.488 1.487-3.438 2.231-5.387 2.231z"/><path d="m75.568 323.007c-1.95 0-3.9-.744-5.387-2.231-2.975-2.975-2.975-7.799 0-10.774l44.283-44.283c2.975-2.975 7.799-2.975 10.774 0s2.975 7.799 0 10.774l-44.283 44.283c-1.487 1.487-3.437 2.231-5.387 2.231z"/></g></g><g><g fill="#2b4d66"><path d="m281.631 383.577h-125.414c-4.208 0-7.618-3.411-7.618-7.618 0-4.208 3.411-7.618 7.618-7.618h125.414c4.208 0 7.618 3.411 7.618 7.618s-3.411 7.618-7.618 7.618z"/><path d="m252.725 418.952h-96.507c-4.208 0-7.618-3.411-7.618-7.618s3.411-7.618 7.618-7.618h96.507c4.208 0 7.619 3.411 7.619 7.618s-3.412 7.618-7.619 7.618z"/></g><path d="m93.361 437.456c-2.95 0-5.644-1.706-6.9-4.391l-17.878-38.222c-1.783-3.811-.138-8.346 3.673-10.129 3.812-1.784 8.346-.137 10.129 3.673l10.397 22.228 24.171-61.021c1.549-3.912 5.977-5.826 9.889-4.277 3.911 1.55 5.827 5.977 4.277 9.889l-30.674 77.438c-1.119 2.827-3.813 4.717-6.853 4.809-.078.001-.155.003-.231.003z" fill="#95d6a4"/></g><g><circle cx="376.723" cy="134.612" fill="#d3effb" r="126.88"/><path d="m398.892 259.653c-7.026 1.218-14.256 1.843-21.627 1.843-70.075 0-126.884-56.81-126.884-126.884s56.81-126.884 126.884-126.884c7.371 0 14.601.625 21.627 1.843-59.762 10.258-105.246 62.337-105.246 125.041s45.484 114.783 105.246 125.041z" fill="#9dc6fb"/><path d="m376.723 150.776h-58.948c-8.927 0-16.164-7.237-16.164-16.164s7.237-16.164 16.164-16.164h58.948c8.927 0 0 7.237 0 16.164s0 10.835 0 16.164z" fill="#365e7d"/><path d="m376.723 150.776c-8.927 0-16.164-7.237-16.164-16.164v-41.272c0-8.927 7.237-16.164 16.164-16.164s16.164 7.237 16.164 16.164v41.272c-.001 8.927-7.238 16.164-16.164 16.164z" fill="#2b4d66"/><g fill="#365e7d"><g><path d="m376.723 45.042c-4.271 0-7.732-3.462-7.732-7.732v-25.578c0-4.27 3.461-7.732 7.732-7.732s7.732 3.462 7.732 7.732v25.578c0 4.27-3.461 7.732-7.732 7.732z"/><path d="m376.723 265.224c-4.271 0-7.732-3.462-7.732-7.732v-25.578c0-4.27 3.461-7.732 7.732-7.732s7.732 3.462 7.732 7.732v25.578c0 4.27-3.461 7.732-7.732 7.732z"/></g><g><path d="m499.603 142.344h-25.578c-4.271 0-7.732-3.462-7.732-7.732s3.461-7.732 7.732-7.732h25.578c4.271 0 7.732 3.462 7.732 7.732-.001 4.27-3.462 7.732-7.732 7.732z"/><path d="m279.421 142.344h-25.578c-4.27 0-7.732-3.462-7.732-7.732s3.462-7.732 7.732-7.732h25.578c4.271 0 7.732 3.462 7.732 7.732-.001 4.27-3.462 7.732-7.732 7.732z"/></g><g><path d="m470.072 88.454c-2.672 0-5.271-1.387-6.703-3.867-2.135-3.698-.868-8.427 2.83-10.562l13.076-7.549c3.696-2.134 8.427-.868 10.562 2.83s.868 8.427-2.83 10.562l-13.076 7.549c-1.217.702-2.547 1.037-3.859 1.037z"/><path d="m270.313 203.785c-2.672 0-5.27-1.387-6.703-3.867-2.135-3.698-.868-8.427 2.83-10.562l13.075-7.549c3.697-2.135 8.425-.869 10.562 2.83 2.135 3.698.868 8.427-2.83 10.562l-13.075 7.549c-1.218.703-2.548 1.037-3.859 1.037z"/></g><g><path d="m430.607 49.003c-1.312 0-2.642-.334-3.859-1.037-3.698-2.135-4.965-6.864-2.83-10.562l7.55-13.075c2.135-3.698 6.864-4.964 10.562-2.83 3.698 2.135 4.965 6.864 2.83 10.562l-7.55 13.075c-1.433 2.48-4.031 3.867-6.703 3.867z"/><path d="m315.276 248.762c-1.312 0-2.641-.334-3.859-1.037-3.698-2.135-4.965-6.863-2.83-10.562l7.549-13.075c2.134-3.698 6.862-4.966 10.562-2.83 3.698 2.135 4.965 6.863 2.83 10.562l-7.549 13.075c-1.432 2.48-4.031 3.867-6.703 3.867z"/></g><g><path d="m322.838 49.003c-2.672 0-5.271-1.387-6.703-3.867l-7.549-13.075c-2.135-3.698-.868-8.427 2.83-10.562 3.697-2.134 8.427-.868 10.562 2.83l7.549 13.075c2.135 3.698.868 8.427-2.83 10.562-1.217.702-2.547 1.037-3.859 1.037z"/><path d="m438.17 248.762c-2.672 0-5.27-1.387-6.703-3.867l-7.55-13.075c-2.135-3.698-.869-8.427 2.83-10.562 3.697-2.135 8.425-.869 10.562 2.83l7.55 13.075c2.135 3.698.869 8.427-2.83 10.562-1.217.703-2.547 1.037-3.859 1.037z"/></g><g><path d="m283.373 88.454c-1.312 0-2.642-.334-3.859-1.037l-13.075-7.549c-3.698-2.135-4.965-6.864-2.83-10.562 2.134-3.698 6.865-4.966 10.562-2.83l13.075 7.549c3.698 2.135 4.965 6.864 2.83 10.562-1.432 2.48-4.031 3.867-6.703 3.867z"/><path d="m483.133 203.785c-1.312 0-2.641-.334-3.859-1.037l-13.076-7.549c-3.698-2.135-4.965-6.864-2.83-10.562 2.134-3.699 6.862-4.966 10.562-2.83l13.076 7.549c3.698 2.135 4.965 6.864 2.83 10.562-1.431 2.48-4.031 3.867-6.703 3.867z"/></g></g><path d="m376.723 269.224c-74.226 0-134.612-60.387-134.612-134.612s60.386-134.612 134.612-134.612 134.612 60.387 134.612 134.612-60.386 134.612-134.612 134.612zm0-253.76c-65.699 0-119.149 53.45-119.149 119.148 0 65.699 53.45 119.149 119.149 119.149s119.149-53.45 119.149-119.149-53.45-119.148-119.149-119.148z" fill="#dd636e"/></g></g></svg>